<?xml version="1.0" encoding="UTF-8"?>
<svg width="1361px" height="91px" viewBox="0 0 1361 91" version="1.1" xmlns="http://www.w3.org/2000/svg" xmlns:xlink="http://www.w3.org/1999/xlink">
    <!-- Generator: Sketch 51.3 (57544) - http://www.bohemiancoding.com/sketch -->
    <title>chrome</title>
    <desc>Created with Sketch.</desc>
    <defs></defs>
    <g id="Page-1" stroke="none" stroke-width="1" fill="none" fill-rule="evenodd">
        <g id="chrome">
            <path d="M8.39999986,0 L1352.59998,0 C1357.23917,1.17125314e-14 1360.99998,0.358816654 1360.99998,0.801439429 L1360.99998,89.7985591 C1360.99998,90.2411818 1357.23917,90.5999985 1352.59998,90.5999985 L8.39999986,90.5999985 C3.76080804,90.5999985 6.2374588e-14,90.2411818 0,89.7985591 L0,0.801439429 C-5.68137141e-16,0.358816654 3.76080804,8.13084846e-17 8.39999986,0 Z" id="Base" fill="#F0F1F2" fill-rule="nonzero"></path>
            <g id="Window-Controls" transform="translate(14.000000, 18.200000)" fill-rule="nonzero">
                <circle id="Shape" stroke="#E14942" fill="#FF6058" cx="6.99999988" cy="6.99999988" r="6.64999989"></circle>
                <circle id="Shape" stroke="#E1A325" fill="#FFC130" cx="29.3999995" cy="6.99999988" r="6.64999989"></circle>
                <circle id="Shape" stroke="#3EAF3F" fill="#27CA40" cx="51.7999991" cy="6.99999988" r="6.64999989"></circle>
            </g>
            <g id="Tab" transform="translate(86.099999, 9.100000)">
                <path d="M15.0577569,0.699999988 L126.150969,0.699999988 C131.143474,0.699999988 132.953877,1.2198234 134.779062,2.1959431 C136.604247,3.17206281 138.036663,4.6044788 139.012783,6.42966395 C139.988902,8.2548491 140.508726,10.065252 140.508726,15.0577569 L140.508726,39.1999993 L0.699999988,39.1999993 L0.699999988,15.0577569 C0.699999988,10.065252 1.2198234,8.2548491 2.1959431,6.42966395 C3.17206281,4.6044788 4.6044788,3.17206281 6.42966395,2.1959431 C8.2548491,1.2198234 10.065252,0.699999988 15.0577569,0.699999988 Z" id="Shape" fill="#FFFFFF" fill-rule="nonzero"></path>
                <g id="New-Tab" transform="translate(16.000000, 12.000000)" fill="#323232" font-family="Helvetica" font-size="13.9999998" font-weight="normal">
                    <text>
                        <tspan x="0.0999997" y="14.8999998">Mokify 🌊</tspan>
                    </text>
                </g>
                <path d="M122.533003,18.3662769 L125.725784,15.1734964 C125.992081,14.9071986 126.469139,14.9525021 126.791321,15.2746847 C127.113504,15.5968672 127.158807,16.0739248 126.89251,16.3402226 L123.699729,19.533003 L126.89251,22.7257835 C127.158807,22.9920813 127.113504,23.4691389 126.791321,23.7913214 C126.469139,24.113504 125.992081,24.1588075 125.725784,23.8925097 L122.533003,20.6997292 L119.340223,23.8925097 C119.073925,24.1588075 118.596867,24.113504 118.274685,23.7913214 C117.952502,23.4691389 117.907199,22.9920813 118.173496,22.7257835 L121.366277,19.533003 L118.173496,16.3402226 C117.907199,16.0739248 117.952502,15.5968672 118.274685,15.2746847 C118.596867,14.9525021 119.073925,14.9071986 119.340223,15.1734964 L122.533003,18.3662769 Z" id="Close" fill="#737373" fill-rule="nonzero"></path>
                <path d="M164.235972,19.2359725 L164.235972,13.825 C164.235972,13.3693651 164.706073,13 165.285972,13 C165.865871,13 166.335972,13.3693651 166.335972,13.825 L166.335972,19.2359725 L171.746945,19.2359725 C172.20258,19.2359725 172.571945,19.7060735 172.571945,20.2859725 C172.571945,20.8658714 172.20258,21.3359725 171.746945,21.3359725 L166.335972,21.3359725 L166.335972,26.746945 C166.335972,27.2025799 165.865871,27.5719449 165.285972,27.5719449 C164.706073,27.5719449 164.235972,27.2025799 164.235972,26.746945 L164.235972,21.3359725 L158.825,21.3359725 C158.369365,21.3359725 158,20.8658714 158,20.2859725 C158,19.7060735 158.369365,19.2359725 158.825,19.2359725 L164.235972,19.2359725 Z" id="Plus" fill="#5F6367" fill-rule="nonzero"></path>
            </g>
            <polygon id="Bar-Base" fill="#FFFFFF" fill-rule="nonzero" points="0 47.5999992 1360.99998 47.5999992 1360.99998 89.5999985 0 89.5999985"></polygon>
            <g id="Navigation-Items" transform="translate(16.800000, 61.599999)" fill-rule="nonzero">
                <path d="M84.7538744,2.04612396 L86.7999985,0 L86.7999985,5.5999999 L81.1999986,5.59999971 L83.7070834,3.092915 C83.1537242,2.57233622 82.6466396,2.19998947 82.1915028,1.95065261 C81.8682951,1.7735903 81.7843031,1.74395313 81.4964002,1.6656446 C79.134135,1.02311706 76.6244157,1.94163635 75.2697793,3.90316378 C74.976843,4.32733861 74.7442613,4.79202853 74.5787561,5.28889109 C74.2150088,6.38089492 74.2092322,7.52928181 74.5438543,8.6037277 C75.0801625,10.3257726 76.4351187,11.6982487 78.2226474,12.2647873 C81.2037234,13.2096084 84.4055766,11.6182508 85.3741869,8.71039067 L86.7999985,9.16228683 C85.5755289,12.8382609 81.5279031,14.8499771 77.7593732,13.6555807 C75.5007522,12.9397343 73.7866805,11.2034991 73.1093977,9.02879566 C72.6863166,7.6703145 72.6936325,6.21589296 73.1529445,4.83699493 C73.3616589,4.21041428 73.6557279,3.62287477 74.0263974,3.08614159 C75.7398463,0.605049938 78.9112912,-0.555650927 81.8990788,0.257016409 C81.9561898,0.269274393 82.0678133,0.29967242 82.2079685,0.34912711 C82.4254051,0.425851053 82.6644302,0.5325221 82.925624,0.675611448 C83.4952653,0.98767713 84.1067752,1.43678654 84.7538744,2.04612396 Z" id="Refresh" fill="#5F6367"></path>
                <g id="Arrow-Back" fill="#737373">
                    <path d="M1.56572979,6.37902685 C1.11009488,6.37902685 0.740729808,6.74839193 0.740729808,7.20402684 C0.740729808,7.65966175 1.11009488,8.02902682 1.56572979,8.02902682 L14.4876748,8.02902682 C14.9433097,8.02902682 15.3126748,7.65966175 15.3126748,7.20402684 C15.3126748,6.74839193 14.9433097,6.37902685 14.4876748,6.37902685 L1.56572979,6.37902685 Z" id="Line"></path>
                    <path d="M1.02177878,6.56574225 C0.699102205,6.88742999 0.69830059,7.40979047 1.01998833,7.73246705 C1.34167606,8.05514362 1.86403654,8.05594524 2.18671312,7.7342575 L8.45264252,1.48753004 C8.7753191,1.1658423 8.77612071,0.643481818 8.45443298,0.320805241 C8.13274524,-0.00187133603 7.61038476,-0.00267295085 7.28770818,0.319014784 L1.02177878,6.56574225 Z" id="Line"></path>
                    <path d="M2.18789182,6.67516754 C1.86489875,6.35379757 1.34253931,6.35511336 1.02116935,6.67810643 C0.699799391,7.00109949 0.701115177,7.52345893 1.02410824,7.84482889 L7.34096914,14.1299463 C7.66396221,14.4513163 8.18632165,14.4500005 8.50769161,14.1270074 C8.82906157,13.8040144 8.82774579,13.2816549 8.50475272,12.960285 L2.18789182,6.67516754 Z" id="Line"></path>
                </g>
                <g id="Arrow-Forward" transform="translate(43.799999, 7.500000) scale(-1, 1) translate(-43.799999, -7.500000) translate(35.799999, 0.000000)" fill="#737373">
                    <path d="M1.56572979,6.37902685 C1.11009488,6.37902685 0.740729808,6.74839193 0.740729808,7.20402684 C0.740729808,7.65966175 1.11009488,8.02902682 1.56572979,8.02902682 L14.4876748,8.02902682 C14.9433097,8.02902682 15.3126748,7.65966175 15.3126748,7.20402684 C15.3126748,6.74839193 14.9433097,6.37902685 14.4876748,6.37902685 L1.56572979,6.37902685 Z" id="Line"></path>
                    <path d="M1.02177878,6.56574225 C0.699102205,6.88742999 0.69830059,7.40979047 1.01998833,7.73246705 C1.34167606,8.05514362 1.86403654,8.05594524 2.18671312,7.7342575 L8.45264252,1.48753004 C8.7753191,1.1658423 8.77612071,0.643481818 8.45443298,0.320805241 C8.13274524,-0.00187133603 7.61038476,-0.00267295085 7.28770818,0.319014784 L1.02177878,6.56574225 Z" id="Line"></path>
                    <path d="M2.18789182,6.67516754 C1.86489875,6.35379757 1.34253931,6.35511336 1.02116935,6.67810643 C0.699799391,7.00109949 0.701115177,7.52345893 1.02410824,7.84482889 L7.34096914,14.1299463 C7.66396221,14.4513163 8.18632165,14.4500005 8.50769161,14.1270074 C8.82906157,13.8040144 8.82774579,13.2816549 8.50475272,12.960285 L2.18789182,6.67516754 Z" id="Line"></path>
                </g>
            </g>
            <g id="Address" transform="translate(121.799998, 53.199999)">
                <rect id="Address-Base" fill="#F1F3F4" fill-rule="nonzero" x="0" y="0" width="1206" height="30.7999995" rx="15.3999997"></rect>
                <g id="Lock" transform="translate(15.400000, 9.800000)" fill="#5F6367" fill-rule="nonzero">
                    <rect id="Shape" x="0" y="4.19999993" width="8.39999986" height="6.99999988" rx="1.39999998"></rect>
                    <path d="M2.33333329,5.99707057 C2.33333329,6.0069858 6.07527379,5.9999999 6.07527379,5.9999999 C6.06452663,5.9999999 6.06666656,3.0092544 6.06666656,3.0092544 C6.06666656,1.9003225 5.2294074,0.999999983 4.19999993,0.999999983 C3.17161029,0.999999983 2.33333329,1.90022575 2.33333329,3.0092544 L2.33333329,5.99707057 Z M4.19999993,0 C5.7463972,0 6.99999988,1.34967039 6.99999988,3.0092544 L6.99999988,5.99707057 C6.99999988,6.55097313 6.57908972,6.99999988 6.07527379,6.99999988 L2.32472607,6.99999988 C1.81401395,6.99999988 1.39999998,6.56211854 1.39999998,5.99707057 L1.39999998,3.0092544 C1.39999998,1.34728909 2.65674926,0 4.19999993,0 Z" id="Shape"></path>
                </g>
                <rect id="Rectangle" fill="#E0E4E6" fill-rule="nonzero" x="32" y="9" width="164" height="13" rx="6.5"></rect>
                <path d="M1186.69032,21.6121336 L1187.85919,22.4255026 C1188.66939,22.9892893 1188.66404,22.9931687 1188.37821,22.0484079 L1187.96585,20.6854049 C1187.40317,18.825508 1188.18116,16.4297367 1189.73019,15.2553452 L1190.86495,14.3950319 C1191.65151,13.7987058 1191.65354,13.8049902 1190.6667,13.7848798 L1189.24298,13.7558666 C1187.30023,13.7162764 1185.26213,12.236028 1184.62389,10.3999051 L1184.15635,9.05483327 C1183.83227,8.12249683 1183.83887,8.12250138 1183.51479,9.05483327 L1183.04725,10.3999051 C1182.40925,12.2353339 1180.37165,13.7162614 1178.42816,13.7558666 L1177.00444,13.7848798 C1176.01759,13.8049903 1176.01964,13.7987087 1176.80619,14.3950319 L1177.94095,15.2553452 C1179.4894,16.4292928 1180.26819,18.8248047 1179.70529,20.6854049 L1179.29293,22.0484079 C1179.0071,22.9931733 1179.00176,22.9892865 1179.81195,22.4255026 L1180.98082,21.6121336 C1182.57581,20.5022444 1185.09473,20.5018247 1186.69032,21.6121336 Z" id="Star" stroke="#5F6367" stroke-width="1.39999998"></path>
            </g>
            <path d="M1335.89998,64.7499989 C1334.98871,64.7499989 1334.24998,64.0112687 1334.24998,63.0999989 C1334.24998,62.1887291 1334.98871,61.449999 1335.89998,61.449999 C1336.81125,61.449999 1337.54998,62.1887291 1337.54998,63.0999989 C1337.54998,64.0112687 1336.81125,64.7499989 1335.89998,64.7499989 Z M1335.89998,70.2499988 C1334.98871,70.2499988 1334.24998,69.5112687 1334.24998,68.5999988 C1334.24998,67.688729 1334.98871,66.9499989 1335.89998,66.9499989 C1336.81125,66.9499989 1337.54998,67.688729 1337.54998,68.5999988 C1337.54998,69.5112687 1336.81125,70.2499988 1335.89998,70.2499988 Z M1335.89998,75.7499987 C1334.98871,75.7499987 1334.24998,75.0112686 1334.24998,74.0999987 C1334.24998,73.1887289 1334.98871,72.4499988 1335.89998,72.4499988 C1336.81125,72.4499988 1337.54998,73.1887289 1337.54998,74.0999987 C1337.54998,75.0112686 1336.81125,75.7499987 1335.89998,75.7499987 Z" id="Menu" fill="#5F6367" fill-rule="nonzero"></path>
            <rect id="Line" fill="#DEDEDE" fill-rule="nonzero" x="0" y="89.5999985" width="1360.99998" height="1"></rect>
        </g>
    </g>
</svg>